<mxfile host="app.diagrams.net" modified="2024-01-12T08:57:33.338Z" agent="Mozilla/5.0 (Windows NT 10.0; Win64; x64) AppleWebKit/537.36 (KHTML, like Gecko) Chrome/120.0.0.0 Safari/537.36" version="22.1.18" etag="9qRFuU1lU3KEx0atj4Al" type="github">
  <diagram name="Trang-1" id="hNJmMSzpb2jmA4i4etJY">
    <mxGraphModel>
      <root>
        <mxCell id="0" />
        <mxCell id="1" parent="0" />
      </root>
    </mxGraphModel>
  </diagram>
</mxfile>
